<?xml version="1.0" encoding="UTF-8" standalone="no"?>
<svg width="24" height="24" viewBox="0 0 24 24" version="1.1" xmlns="http://www.w3.org/2000/svg">
    <path d="M16 4c0-1.11.89-2 2-2s2 .89 2 2-.89 2-2 2-2-.89-2-2zm4 18v-6h2.5l-2.54-7.63A1.5 1.5 0 0 0 18.54 8H17c-.8 0-1.54.37-2.01.99l-2.54 3.38c-.35.47-.35 1.1 0 1.57l2.54 3.38c.47.62 1.21.99 2.01.99h1.54c.69 0 1.32-.42 1.58-1.06L22 14v8h-2z" fill="currentColor"/>
    <circle cx="12" cy="4" r="2" fill="currentColor"/>
    <path d="M15 8.31V9c0 .55-.45 1-1 1h-4c-.55 0-1-.45-1-1v-.69c-.95-.57-1.59-1.61-1.59-2.81 0-1.79 1.21-3.2 2.59-3.5V2c0-.55.45-1 1-1s1 .45 1 1v0h2V2c0-.55.45-1 1-1s1 .45 1 1v0c1.38.3 2.59 1.71 2.59 3.5 0 1.2-.64 2.24-1.59 2.81z" fill="currentColor"/>
</svg>